<?xml version="1.0" standalone="no"?>
<!DOCTYPE svg PUBLIC "-//W3C//DTD SVG 20010904//EN"
 "http://www.w3.org/TR/2001/REC-SVG-20010904/DTD/svg10.dtd">
<svg version="1.0" xmlns="http://www.w3.org/2000/svg"
 width="450.000000pt" height="147.000000pt" viewBox="0 0 450.000000 147.000000"
 preserveAspectRatio="xMidYMid meet">
<metadata>
Created by potrace 1.10, written by Peter Selinger 2001-2011
</metadata>
<g transform="translate(0.000000,147.000000) scale(0.100000,-0.100000)"
fill="#000000" stroke="none">
<path d="M12 733 c2 -401 4 -638 5 -528 7 510 7 1255 1 1255 -5 0 -7 -327 -6
-727z"/>
<path d="M4475 735 c0 -399 3 -725 8 -725 4 0 7 326 7 725 0 399 -3 725 -7
725 -5 0 -8 -326 -8 -725z"/>
<path d="M2383 1420 c-52 -22 -53 -30 -52 -399 0 -189 -2 -346 -5 -348 -3 -3
-22 9 -43 27 -110 97 -298 117 -368 40 -23 -25 -40 -25 -73 -1 -110 76 -240
42 -386 -101 -43 -43 -83 -78 -87 -78 -5 0 -18 23 -30 50 -27 63 -93 123 -162
147 -68 23 -176 23 -246 -1 -58 -20 -131 -84 -131 -114 0 -24 56 -111 77 -119
9 -4 36 5 64 20 55 32 157 38 179 12 16 -19 7 -22 -89 -28 -59 -4 -87 -11
-142 -40 l-69 -35 -30 31 c-17 18 -30 38 -30 44 0 35 -65 146 -106 182 -63 56
-127 75 -242 74 l-93 -1 3 65 3 65 38 13 c37 13 82 41 139 87 l28 22 28 -27
c15 -15 60 -39 100 -53 l72 -27 20 23 c11 13 20 28 20 35 0 23 -53 116 -77
135 -23 18 -25 23 -14 46 10 22 9 30 -6 46 -35 39 -199 7 -292 -57 -28 -19
-53 -35 -56 -35 -3 0 -5 51 -5 113 0 106 -2 115 -23 135 -20 19 -35 22 -98 22
-66 0 -78 -3 -97 -23 -21 -23 -21 -24 -21 -561 -1 -613 -6 -571 88 -659 160
-150 399 -138 536 27 l34 41 68 -66 c37 -37 84 -75 103 -85 46 -23 133 -23
193 0 38 15 52 17 73 7 42 -19 128 -14 158 10 l26 21 34 -21 c24 -15 50 -21
95 -21 52 0 66 4 86 25 25 24 25 26 25 214 l0 189 35 31 c24 21 46 31 68 31
62 0 62 1 65 -229 3 -205 4 -210 27 -235 21 -22 32 -26 83 -26 45 0 66 5 86
21 l26 20 0 205 0 205 26 26 c20 20 31 24 57 19 59 -12 59 -14 58 -240 l-2
-206 25 -25 c21 -21 34 -25 84 -25 68 0 112 25 112 64 0 13 3 38 6 55 l7 31
68 -65 c58 -55 79 -68 140 -86 88 -27 175 -22 246 12 54 26 132 99 157 147 9
18 19 32 22 32 3 0 36 -31 73 -70 97 -100 154 -125 286 -124 80 1 110 5 148
22 72 32 132 77 164 122 15 22 33 40 38 40 6 0 39 -29 74 -64 35 -35 89 -77
120 -92 52 -27 64 -29 171 -29 105 0 120 2 171 28 66 32 132 100 160 163 45
101 34 259 -25 356 -36 61 -129 139 -186 158 -45 15 -46 18 -25 46 9 12 14 44
15 92 0 71 1 73 42 118 l42 46 -32 26 c-18 15 -32 34 -32 42 -1 19 -24 50 -38
50 -6 0 -19 -11 -29 -24 -19 -24 -20 -24 -73 -10 -73 19 -104 18 -149 -6 -39
-19 -70 -68 -87 -135 -8 -28 -8 -27 -16 20 -9 65 -53 108 -128 124 -72 16
-119 0 -172 -57 l-41 -45 -18 24 c-10 13 -19 27 -19 31 0 13 -73 45 -118 52
-70 10 -149 -33 -177 -98 -8 -18 -11 -53 -7 -93 2 -34 2 -63 -1 -63 -15 0 -40
68 -39 105 2 36 -3 45 -42 81 -45 43 -106 167 -106 217 0 31 -42 70 -75 70
-33 0 -75 -39 -75 -69 0 -12 -13 -51 -30 -86 -16 -34 -30 -68 -30 -75 0 -6
-18 -33 -40 -58 -30 -35 -40 -55 -40 -81 0 -19 -11 -61 -25 -94 -30 -72 -30
-75 -4 -101 23 -23 18 -33 -22 -43 -20 -4 -29 -1 -34 11 -3 10 -6 147 -6 305
1 286 1 287 -22 314 -19 22 -34 28 -78 30 -30 2 -64 0 -76 -6z m137 -222 l0
-187 -67 -33 c-38 -18 -71 -34 -75 -36 -5 -2 -8 97 -8 220 l0 223 75 0 75 0 0
-187z m-2240 -28 l0 -180 -80 0 -80 0 0 180 0 180 80 0 80 0 0 -180z m2628
155 c2 -2 -1 -11 -6 -21 -10 -18 1 -49 65 -181 31 -66 38 -73 64 -73 24 0 29
-4 29 -24 0 -14 -7 -26 -16 -28 -13 -2 -8 -18 25 -83 22 -44 39 -80 38 -81 -1
-1 -13 -4 -27 -7 -23 -5 -28 1 -69 83 -50 100 -48 99 -168 92 l-79 -4 -40 -89
c-36 -83 -41 -89 -64 -83 -14 3 -26 7 -27 8 -1 1 16 37 38 81 45 90 43 85 27
85 -7 0 -13 11 -13 25 0 19 4 23 20 19 16 -3 25 7 48 54 15 32 27 63 27 69 0
6 12 32 26 57 19 33 25 55 21 76 -5 22 -2 30 11 33 16 5 63 -1 70 -8z m-2232
-134 c-3 -4 -19 -11 -34 -14 -18 -4 -67 -41 -123 -93 -52 -47 -115 -97 -141
-110 l-48 -24 0 40 c0 72 39 123 123 160 78 35 237 64 223 41z m3492 -76 l-5
-56 45 7 c32 5 43 4 38 -5 -4 -6 -27 -11 -52 -11 l-44 0 0 44 c0 44 7 76 17
76 3 0 3 -25 1 -55z m-798 -15 c41 -22 51 -47 55 -141 3 -52 6 -103 7 -114 2
-16 -4 -21 -30 -23 -33 -3 -34 -3 -27 28 4 17 4 63 0 102 -9 91 -27 111 -93
104 -26 -2 -48 -5 -49 -5 -2 -1 -3 -53 -3 -116 l0 -115 -30 0 -30 0 -2 93 c-3
151 -1 158 65 191 32 16 102 14 137 -4z m351 -6 c42 -21 46 -34 52 -156 l5
-118 -28 0 -28 0 -4 106 c-4 122 -11 134 -85 132 -60 -1 -67 -17 -60 -140 l6
-98 -32 0 -32 0 0 114 c0 100 2 117 20 136 43 49 118 59 186 24z m362 1 c23
-10 39 -27 46 -46 9 -26 13 -29 30 -20 24 13 41 14 41 2 0 -5 -13 -12 -30 -16
l-30 -7 0 -93 c0 -99 -5 -111 -44 -101 -22 5 -23 9 -18 85 5 89 0 122 -24 145
-30 31 -117 13 -130 -27 -9 -29 5 -105 23 -123 12 -11 28 -15 55 -11 32 4 38
2 38 -13 0 -10 3 -25 6 -34 5 -13 -2 -16 -35 -16 -57 0 -104 21 -131 60 -20
28 -22 39 -16 93 8 63 28 113 55 135 21 17 117 10 164 -13z m-3408 -11 c26
-28 70 -112 63 -120 -3 -2 -22 5 -44 15 -21 11 -56 26 -77 35 -44 19 -67 57
-47 81 21 25 77 19 105 -11z m3342 -72 c7 -4 15 -22 19 -39 5 -25 2 -33 -14
-42 -29 -16 -50 -4 -58 32 -5 23 -2 34 12 44 21 15 25 16 41 5z m-687 -94 c3
-49 11 -93 18 -100 24 -24 12 -35 -47 -42 -83 -9 -171 -56 -239 -127 l-56 -58
-71 67 c-70 67 -113 92 -192 112 -42 10 -53 23 -33 35 5 3 23 34 41 68 44 88
43 87 120 87 l68 0 37 -67 c21 -38 44 -76 52 -85 19 -22 60 -23 83 -2 17 15
20 15 45 -5 35 -27 59 -27 89 4 23 22 25 32 25 108 0 46 3 87 7 91 4 4 16 6
28 4 18 -3 21 -12 25 -90z m344 76 c3 -9 6 -48 6 -88 0 -66 3 -76 26 -100 15
-14 35 -26 46 -26 31 0 68 45 68 81 l0 33 35 -41 c19 -22 48 -46 65 -53 16 -7
30 -16 30 -20 0 -4 -22 -17 -49 -28 -55 -23 -130 -87 -162 -138 -11 -19 -24
-34 -28 -34 -4 0 -39 32 -77 70 -61 63 -120 101 -188 124 -18 6 -18 8 4 31
l23 24 29 -24 c32 -27 55 -31 79 -12 29 22 38 52 32 109 -8 77 1 108 31 108
13 0 27 -7 30 -16z m-1106 -281 c74 33 160 29 247 -12 l70 -32 -60 -53 -59
-53 -26 18 c-45 32 -116 29 -160 -7 -41 -35 -59 -73 -68 -140 l-7 -55 -67 95
-68 95 0 170 0 170 73 38 72 38 3 -147 3 -147 47 22z m-2288 134 l0 -124 -65
-11 c-35 -7 -71 -15 -80 -18 -13 -5 -15 12 -15 135 l0 141 80 0 80 0 0 -123z
m216 -108 c32 -6 78 -22 101 -35 44 -26 93 -86 93 -116 0 -9 -24 -37 -52 -62
-52 -45 -53 -46 -62 -24 -20 54 -36 74 -77 96 -24 12 -56 22 -72 22 -34 0 -84
-25 -109 -54 -19 -21 -19 -20 -15 57 5 104 16 115 118 125 8 1 42 -3 75 -9z
m1670 -11 c66 -29 108 -66 167 -147 33 -47 94 -130 134 -183 l73 -98 -47 -35
c-60 -44 -85 -44 -116 -3 -244 332 -249 338 -321 338 -25 0 -45 -9 -68 -29
l-33 -29 -2 -219 -2 -218 -71 -3 -70 -3 0 216 c0 237 -3 251 -60 275 -51 21
-92 5 -171 -66 l-72 -65 -43 42 -43 42 22 29 c33 44 125 118 182 144 88 42
160 28 228 -42 20 -21 37 -33 37 -27 0 22 62 83 94 93 39 12 143 5 182 -12z
m-968 -24 c33 -16 64 -41 82 -66 30 -41 55 -131 43 -151 -5 -7 -37 -40 -73
-73 l-65 -61 -30 18 c-34 21 -95 25 -128 8 -36 -19 -77 -62 -77 -81 0 -10 -4
-18 -9 -18 -14 0 -102 112 -98 124 6 20 70 56 125 72 39 12 81 15 139 12 82
-4 83 -4 83 19 0 31 -25 80 -48 92 -59 31 -160 21 -225 -23 l-36 -25 -7 22
c-3 12 -15 31 -25 43 -19 21 -19 21 8 48 79 79 225 96 341 40z m2304 3 c30
-15 65 -38 78 -52 l24 -25 -50 -51 c-48 -48 -49 -49 -65 -30 -62 76 -189 83
-262 13 -37 -35 -58 -75 -66 -128 l-6 -42 -63 74 -63 74 20 34 c42 67 118 124
206 153 64 21 182 12 247 -20z m700 6 c60 -27 68 -52 33 -105 -30 -45 -37 -45
-128 -12 -41 14 -54 15 -90 4 -78 -23 -137 -110 -137 -203 l0 -35 -76 78 c-85
88 -84 80 -19 170 41 56 82 87 149 111 69 26 201 22 268 -8z m-3920 -210 c2
-109 7 -206 11 -215 7 -13 -3 -24 -45 -52 -29 -20 -60 -36 -68 -36 -8 0 -25
15 -37 33 -22 32 -23 42 -23 233 l0 200 68 16 c37 8 72 16 79 17 9 1 13 -51
15 -196z m4041 115 c53 -82 71 -146 65 -242 -3 -45 -12 -97 -21 -118 -20 -49
-83 -109 -142 -138 -79 -38 -218 -39 -319 0 l-28 10 49 54 c37 42 52 52 65 45
23 -12 111 -11 145 2 38 14 71 46 95 93 26 52 22 143 -10 185 l-21 28 30 29
c16 15 35 45 41 66 6 21 12 38 14 38 1 0 18 -24 37 -52z m-1245 -177 l170
-195 -45 -52 -45 -52 -163 177 c-89 97 -172 185 -184 195 -11 11 -21 23 -21
28 0 14 104 107 112 100 3 -4 83 -94 176 -201z m872 -188 c-1 -4 -20 -32 -43
-61 l-42 -53 -39 43 c-22 24 -100 107 -174 186 l-135 143 49 50 48 49 169
-175 c92 -96 167 -178 167 -182z m-3459 307 c61 -33 67 -212 8 -271 -27 -27
-117 -27 -150 0 -22 18 -24 28 -27 123 l-4 105 32 26 c34 29 103 37 141 17z
m235 -175 c-7 -113 -37 -188 -89 -227 -130 -95 -269 -101 -402 -17 l-49 31 29
15 c17 8 47 26 67 40 34 23 41 24 68 13 46 -19 130 -17 162 4 36 24 60 78 66
151 4 55 8 63 36 83 18 12 47 38 66 57 l35 36 8 -53 c5 -29 6 -89 3 -133z
m2694 166 c19 -10 49 -37 67 -59 31 -41 31 -41 17 -89 -29 -96 -83 -143 -166
-143 -38 0 -47 6 -95 55 -56 57 -59 67 -43 127 29 103 134 155 220 109z m-657
-40 c41 -44 41 -51 16 -153 -11 -45 -69 -98 -107 -98 -68 0 -138 81 -127 147
12 71 26 102 58 129 26 22 38 25 76 21 37 -4 52 -13 84 -46z m1372 32 c23 -11
42 -31 55 -58 57 -118 -21 -237 -147 -222 -40 4 -54 12 -90 50 -47 50 -48 64
-16 154 29 84 114 116 198 76z m-2657 -108 c-7 -7 -80 -72 -161 -146 -189
-171 -208 -185 -265 -198 -48 -10 -113 -2 -154 20 -17 9 -15 14 24 62 24 29
43 53 44 55 0 1 15 -3 32 -9 54 -19 87 2 252 160 l155 149 43 -41 c33 -32 39
-44 30 -52z m830 -122 c7 -12 12 -64 12 -117 l0 -96 -75 0 -75 0 0 202 0 201
63 -84 c35 -46 69 -94 75 -106z m-746 -25 l-4 -188 -79 0 -79 0 0 118 0 117
82 72 c46 39 83 71 83 70 0 -1 -1 -86 -3 -189z m-657 -7 l46 -42 -30 -38 c-53
-67 -51 -67 -120 3 l-63 63 11 39 c6 22 11 68 11 104 l0 64 49 -75 c27 -41 70
-94 96 -118z m2051 22 c12 -65 -95 -180 -194 -209 -105 -31 -236 3 -310 79
l-33 34 28 7 c15 4 45 21 66 38 l39 30 27 -26 c30 -29 84 -42 125 -32 69 17
132 116 124 195 l-4 41 63 -62 c43 -42 65 -73 69 -95z m714 -16 c0 -41 -88
-129 -162 -162 -53 -24 -76 -28 -148 -29 -47 0 -103 6 -125 13 -22 7 -45 14
-52 16 -7 2 5 22 28 47 21 24 39 45 39 48 0 3 38 6 84 5 94 0 114 9 169 78 22
26 31 50 35 88 l5 52 63 -65 c45 -46 64 -74 64 -91z m-2544 51 c4 -6 -8 -25
-29 -45 -27 -24 -46 -33 -71 -33 -45 0 -51 11 -24 45 32 41 107 61 124 33z
m204 -158 l0 -80 -75 0 c-65 0 -75 2 -75 18 0 16 125 141 143 142 4 0 7 -36 7
-80z"/>
<path d="M2833 1162 c-12 -26 -29 -64 -37 -84 l-15 -37 77 2 c76 2 77 2 74 27
-3 29 -54 133 -68 137 -5 1 -19 -19 -31 -45z m47 -63 c0 -5 -7 -9 -15 -9 -15
0 -20 12 -9 23 8 8 24 -1 24 -14z"/>
</g>
</svg>
